<?xml version="1.0" encoding="UTF-8"?>
<svg width="123px" height="50px" viewBox="0 0 123 50" version="1.1" xmlns="http://www.w3.org/2000/svg" xmlns:xlink="http://www.w3.org/1999/xlink">
    <!-- Generator: sketchtool 64 (101010) - https://sketch.com -->
    <title>31E70522-32F8-46FF-BBA4-9DC52EDD39EC</title>
    <desc>Created with sketchtool.</desc>
    <g id="Landing" stroke="none" stroke-width="1" fill="none" fill-rule="evenodd">
        <g id="Fyli---Landing" transform="translate(-70.000000, -36.000000)">
            <g id="1st-block---About">
                <g id="Header" transform="translate(70.000000, 36.000000)">
                    <g id="logo">
                        <g id="Group-2-Copy-36" fill="#56C596">
                            <path d="M23.9217962,-7.50149454e-09 C37.1337174,-7.50149454e-09 47.844036,10.7075913 47.844036,23.9161482 C47.844036,30.1994942 45.4156912,35.9126284 41.451951,40.1805349 L41.1518056,40.4979045 L39.7340724,40.4972706 C39.9062213,39.6460195 40.0048946,38.8170235 40.0300923,38.0102828 C40.2185339,31.977065 38.4789394,27.0778653 34.8113089,23.3126837 C37.3649087,27.4813207 38.2534293,32.2713027 37.4768709,37.6826297 C37.3521842,38.5514899 37.1049905,39.4896604 36.73529,40.4971412 L33.2480246,40.4975927 C32.6136702,36.3903856 29.0632386,33.2459541 24.7783857,33.2459541 C20.4935327,33.2459541 16.9431011,36.3903856 16.3087468,40.4975927 L6.69223038,40.4979045 C2.55083622,36.1979288 -6.87445834e-09,30.3565779 -6.87445834e-09,23.9161482 C-6.87445834e-09,14.5691987 5.36329196,6.47463106 13.1808856,2.54053767 C13.2884637,5.36123862 13.8154457,7.77731098 14.7628006,9.78953917 C17.3339215,15.2507262 21.1081017,18.8261858 26.085341,20.5159178 C21.9175454,17.960945 18.9512614,14.0964197 17.1864889,8.92234194 C16.5249203,6.9827109 16.2868341,4.40327423 16.4722302,1.18403194 C18.8168101,0.415009001 21.3208327,-7.50149454e-09 23.9217962,-7.50149454e-09 Z M31.6839026,12.6227038 C31.0086236,12.6227038 30.4482456,12.8449713 30.0027686,13.2904483 C29.5572917,13.7359252 29.3349299,14.2831179 29.3349299,14.9310843 C29.3349299,15.5790508 29.5572917,16.1253016 30.0027686,16.5707786 C30.4482456,17.0162555 31.0086236,17.2394649 31.6839026,17.2394649 C32.3045565,17.2394649 32.837622,17.0162555 33.2830047,16.5707786 C33.7285759,16.1253016 33.9517852,15.5790508 33.9517852,14.9310843 C33.9517852,14.2831179 33.7285759,13.7359252 33.2830047,13.2904483 C32.837622,12.8449713 32.3045565,12.6227038 31.6839026,12.6227038 Z M32.8013967,14.2051472 C33.2543268,14.7903083 33.3937383,15.4202588 33.1129405,15.611957 C32.8321427,15.8036551 32.7458766,15.1374875 32.2929465,14.5523264 C31.8400048,13.9670546 31.1921586,13.6844308 31.4729564,13.4927327 C31.7538611,13.3009114 32.3485852,13.6199736 32.8013967,14.2051472 Z" id="Combined-Shape"></path>
                        </g>
                        <g id="Group-6" transform="translate(64.259311, 11.228990)">
                            <polygon id="Path" fill="#205072" points="44.6132215 29.3506112 47.7999568 29.3506112 47.7999568 -5.54282088e-15 44.6132215 -5.54282088e-15"></polygon>
                            <path d="M57.1502229,8.80518335 L57.1502229,29.3506112 L53.9635851,29.3506112 L53.9635851,8.80518335 L57.1502229,8.80518335 Z M55.556904,0.712800557 C56.1994971,0.712800557 56.7514056,0.94292495 57.212532,1.40414884 C57.6738534,1.86537273 57.9049529,2.43190778 57.9049529,3.10277889 C57.9049529,3.77365001 57.6738534,4.33920996 57.212532,4.80043385 C56.7514056,5.26165774 56.1994971,5.49275723 55.556904,5.49275723 C54.8577549,5.49275723 54.2775684,5.26165774 53.8163445,4.80043385 C53.3551206,4.33920996 53.1248987,3.77365001 53.1248987,3.10277889 C53.1248987,2.43190778 53.3551206,1.86537273 53.8163445,1.40414884 C54.2775684,0.94292495 54.8577549,0.712800557 55.556904,0.712800557 Z" id="Combined-Shape" fill="#205072"></path>
                            <path d="M38.7431675,8.80516385 L38.7431675,29.3925211 C38.7431675,31.014118 38.4418606,32.523578 37.8411969,33.9209011 C37.2405332,35.3182242 36.2615295,36.4572425 34.9061358,37.3376633 C33.5507421,38.2181816 31.8248092,38.6590259 29.728337,38.6590259 C27.3520101,38.6590259 25.4437328,38.0719161 24.0044802,36.8978917 C22.5652277,35.7238672 21.5657467,34.1305483 21.0070125,32.117935 L24.0678619,31.4051344 C24.4032975,32.8590136 25.0322392,33.9560048 25.9546869,34.6961083 C26.8771347,35.4372844 28.1350181,35.8077261 29.728337,35.8077261 C31.6843943,35.8077261 33.1450991,35.2411911 34.1094764,34.1090961 C35.0738536,32.9770011 35.5565297,31.4334124 35.5565297,29.47638 L35.5565297,27.8313806 C35.3507829,27.9932478 35.1333349,28.1482892 34.9061358,28.2955298 C33.5926716,29.1487453 31.9320705,29.5875418 29.9233576,29.6148447 L29.8268224,29.6148447 C29.1988558,29.6060687 28.6050179,29.5573136 28.0453086,29.4685792 L28.0443334,29.4685792 C26.813753,29.2725834 25.7469899,28.8815669 24.8430691,28.2955298 C23.4876754,27.4150115 22.5096468,26.2760908 21.908008,24.8777925 C21.6486305,24.2751787 21.445809,23.6511125 21.2985684,23.0065692 C21.1727801,22.4556358 21.0879461,21.8900758 21.0430913,21.3089142 L21.0070125,17.3412187 L21.0070125,8.80516385 L24.1936503,8.80516385 L24.2082768,20.966653 C24.2180279,21.1802006 24.2326544,21.3878976 24.2550818,21.5907191 C24.2550818,21.5926693 24.2550818,21.5946195 24.2560569,21.5965697 C24.4140236,23.0124198 24.8752475,24.1698675 25.6397286,25.0669626 C25.9673633,25.4511533 26.351554,25.7709872 26.7942509,26.0245141 C27.6201635,26.4993894 28.6479224,26.7451155 29.8755776,26.7626673 C31.7585022,26.7353644 33.1694767,26.1707796 34.1094764,25.0669626 C34.9841441,24.0401788 35.4629198,22.6730838 35.5438534,20.966653 L35.5487289,20.966653 L35.5487289,20.8457401 C35.5536044,20.7102008 35.5565297,20.5727112 35.5565297,20.4332714 L35.5565297,17.3304925 L35.5487289,17.2914884 L35.5487289,11.3453081 C35.5536044,11.2175696 35.5565297,11.0878808 35.5565297,10.957217 L35.5565297,8.80516385 L38.7431675,8.80516385 Z" id="Fill-3" fill="#205072"></path>
                            <path d="M3.27049667,29.3505722 L3.27049667,16.6878799 L16.1009067,16.6878799 L16.1009067,13.7947482 L3.27049667,13.7947482 L3.27049667,10.443318 C3.27049667,6.29659344 6.632068,2.93502211 10.7787926,2.93502211 L17.7780845,2.93502211 L17.7780845,-3.90041344e-05 L9.75103361,-3.90041344e-05 C4.36563526,-3.90041344e-05 0,4.36559625 0,9.75099461 L0,29.3505722 L3.27049667,29.3505722 Z" id="Fill-4" fill="#205072"></path>
                            <path d="M21.0619217,21.3089142 C21.0306717,20.9939559 21.0156717,20.674122 21.0156717,20.3494125 L21.0156717,17.3412187 L21.0619217,21.3089142 Z" id="Fill-5" fill="#176577"></path>
                        </g>
                    </g>
                </g>
            </g>
        </g>
    </g>
</svg>